<svg xmlns="http://www.w3.org/2000/svg" xmlns:xlink="http://www.w3.org/1999/xlink" class="" app-context="doc-2d" x="0px" y="0px" width="128" height="73" jvs-fullPath="gdrive/Untitled.svg"><title/><desc/><defs/><g id="jvs-guides" transform="matrix(1 0 0 1 0 0)"/><g id="jvs-content" enable-background="new"><g transform="matrix(1,0,0,1,0,0)" name="Layer" jvs-layer-color="#fb0094" class="jvs-layer selected"><rect transform="matrix(1 0 0 1 0.230931 0.566463)" width="126.974" height="71.4601" fill="rgb(0,0,0)" stroke="#000000" stroke-width="1.0268977215430595" stroke-linecap="butt" stroke-linejoin="miter" opacity="1" x="0" rx="0" y="0" fill-opacity="1"/><rect transform="matrix(1 0 0 1 102.626 24.6483)" width="23.0348" height="43.7137" fill="rgb(0,0,0)" stroke="rgb(255,255,255)" stroke-width="0.9999999964181542" stroke-linecap="butt" stroke-linejoin="miter" opacity="1" x="0" rx="0" y="0" fill-opacity="0" stroke-opacity="1"/><ellipse cx="101.513" cy="84.16" rx="2.79801" ry="2.96931" fill="rgb(0,0,0)" stroke="rgb(255,224,0)" stroke-width="0.9999999964223181" stroke-linecap="butt" stroke-linejoin="miter" opacity="1" transform="matrix(0.999356 -0.0358735 0.0358735 0.999356 4.48115 -48.1518)" fill-opacity="0" stroke-opacity="1"/><ellipse cx="101.513" cy="84.16" rx="2.79801" ry="2.96931" fill="rgb(0,0,0)" stroke="rgb(255,224,0)" stroke-width="0.9999999964181343" stroke-linecap="butt" stroke-linejoin="miter" opacity="1" transform="matrix(1 0 0 1 18.656 -51.6764)" fill-opacity="0" stroke-opacity="1"/><ellipse cx="101.513" cy="84.16" rx="2.79801" ry="2.96931" fill="rgb(0,0,0)" stroke="rgb(255,224,0)" stroke-width="0.999999996418133" stroke-linecap="butt" stroke-linejoin="miter" opacity="1" transform="matrix(1 0 0 1 7.58255 -42.429)" fill-opacity="0" stroke-opacity="1"/><ellipse cx="101.513" cy="84.16" rx="2.79801" ry="2.96931" fill="rgb(0,0,0)" stroke="rgb(255,224,0)" stroke-width="0.9999999964181312" stroke-linecap="butt" stroke-linejoin="miter" opacity="1" transform="matrix(1 0 0 1 7.58255 -32.2576)" fill-opacity="0" stroke-opacity="1"/><ellipse cx="101.513" cy="84.16" rx="2.79801" ry="2.96931" fill="rgb(0,0,0)" stroke="rgb(255,224,0)" stroke-width="0.9999999964181413" stroke-linecap="butt" stroke-linejoin="miter" opacity="1" transform="matrix(1 0 0 1 7.58255 -22.9338)" fill-opacity="0" stroke-opacity="1"/><ellipse cx="101.513" cy="84.16" rx="2.79801" ry="2.96931" fill="rgb(0,0,0)" stroke="rgb(255,224,0)" stroke-width="0.9999999964181537" stroke-linecap="butt" stroke-linejoin="miter" opacity="1" transform="matrix(1 0 0 1 18.5808 -41.971)" fill-opacity="0" stroke-opacity="1"/><ellipse cx="101.513" cy="84.16" rx="2.79801" ry="2.96931" fill="rgb(0,0,0)" stroke="rgb(255,224,0)" stroke-width="0.9999999964181542" stroke-linecap="butt" stroke-linejoin="miter" opacity="1" transform="matrix(1 0 0 1 18.2484 -32.0186)" fill-opacity="0" stroke-opacity="1"/><ellipse cx="101.513" cy="84.16" rx="2.79801" ry="2.96931" fill="rgb(0,0,0)" stroke="rgb(255,224,0)" stroke-width="0.9999999964181542" stroke-linecap="butt" stroke-linejoin="miter" opacity="1" transform="matrix(1 0 0 1 17.9116 -22.5879)" fill-opacity="0" stroke-opacity="1"/><rect transform="matrix(1 0 0 1 55.5499 31.8872)" width="24.9903" height="24.2912" fill="rgb(44,44,44)" stroke="#000000" stroke-width="0.9999999964181546" stroke-linecap="butt" stroke-linejoin="miter" opacity="1" x="0" rx="0" y="0" fill-opacity="1"/><rect transform="matrix(1 0 0 1 59.6911 60.6616)" width="5.72323" height="9.42764" fill="rgb(44,44,44)" stroke="#000000" stroke-width="1.7378400905003475" stroke-linecap="butt" stroke-linejoin="miter" opacity="1" x="0" rx="0" y="0" fill-opacity="1"/><rect transform="matrix(1 0 0 1 72.1938 60.2881)" width="5.72323" height="9.42764" fill="rgb(94,22,0)" stroke="#000000" stroke-width="1.7378400905003284" stroke-linecap="butt" stroke-linejoin="miter" opacity="1" x="0" rx="0" y="0" fill-opacity="1"/><rect transform="matrix(1 0 0 1 83.146 60.2881)" width="5.72323" height="9.42764" fill="rgb(121,29,0)" stroke="#000000" stroke-width="1.73784009050033" stroke-linecap="butt" stroke-linejoin="miter" opacity="1" x="0" rx="0" y="0" fill-opacity="1"/><rect transform="matrix(1 0 0 1 91.1023 60.0125)" width="5.72323" height="9.42764" fill="rgb(211,211,211)" stroke="#000000" stroke-width="1.7378400905003315" stroke-linecap="butt" stroke-linejoin="miter" opacity="1" x="0" rx="0" y="0" fill-opacity="1"/><rect transform="matrix(1 0 0 1 45.3394 38.9652)" width="5.72323" height="9.42764" fill="rgb(255,255,255)" stroke="#000000" stroke-width="1.7378400905003497" stroke-linecap="butt" stroke-linejoin="miter" opacity="1" x="0" rx="0" y="0" fill-opacity="1"/><rect transform="matrix(1 0 0 1 38.9297 30.3367)" width="5.72323" height="9.42764" fill="rgb(255,255,255)" stroke="#000000" stroke-width="1.7378400905003497" stroke-linecap="butt" stroke-linejoin="miter" opacity="1" x="0" rx="0" y="0" fill-opacity="1"/><rect transform="matrix(1 0 0 1 38.8421 43.7951)" width="5.72323" height="9.42764" fill="rgb(255,255,255)" stroke="#000000" stroke-width="1.7378400905003497" stroke-linecap="butt" stroke-linejoin="miter" opacity="1" x="0" rx="0" y="0" fill-opacity="1"/><rect transform="matrix(1 0 0 1 33.4882 5.16529)" width="57.4889" height="18.1544" fill="rgb(211,211,211)" stroke="#000000" stroke-width="1.9762277609146155" stroke-linecap="butt" stroke-linejoin="miter" opacity="1" x="0" rx="0" y="0" fill-opacity="1"/><path fill="rgb(255,255,255)" stroke="rgb(255,255,0)" stroke-width="1.9999999928363084" stroke-linecap="butt" stroke-linejoin="miter" opacity="1" d="M 33.249698638916016 116.76895141601562 L 0.43011942505836487 116.76895141601562" transform="matrix(1 0 0 1 9.11505e-7 -55)" fill-opacity="1" stroke-opacity="1"/><path fill="rgb(255,255,255)" stroke="rgb(255,255,0)" stroke-width="1.9999999928363084" stroke-linecap="butt" stroke-linejoin="miter" opacity="1" d="M 25.61243438720703 116.56253814697266 L 25.818845748901367 84.15579223632812" transform="matrix(1 0 0 1 9.11505e-7 -55)" fill-opacity="1" stroke-opacity="1"/><path fill="rgb(255,255,255)" stroke="rgb(255,255,0)" stroke-width="1.9999999928363084" stroke-linecap="butt" stroke-linejoin="miter" opacity="1" d="M 0.4301200807094575 116.76895141601562 L 0.4144277274608613 111.07197570800781" transform="matrix(1 0 0 1 9.11505e-7 -55)" fill-opacity="1" stroke-opacity="1"/><path fill="rgb(255,255,255)" stroke="rgb(255,255,0)" stroke-width="1.9999999928363084" stroke-linecap="butt" stroke-linejoin="miter" opacity="1" d="M 0.4144277274608613 111.07197570800781 L 21.715290069580078 110.97244262695312" transform="matrix(1 0 0 1 9.11505e-7 -55)" fill-opacity="1" stroke-opacity="1"/><path fill="rgb(255,255,255)" stroke="rgb(255,255,0)" stroke-width="0.9999999964181542" stroke-linecap="butt" stroke-linejoin="miter" opacity="1" d="M 21.715290069580078 110.97244262695312 L 21.715290069580078 106.4932861328125" transform="matrix(1 0 0 1 9.11505e-7 -55)" fill-opacity="1" stroke-opacity="1"/><path fill="rgb(255,255,255)" stroke="rgb(255,255,0)" stroke-width="0.9999999964181542" stroke-linecap="butt" stroke-linejoin="miter" opacity="1" d="M 21.715290069580078 106.4932861328125 L 21.615755081176758 105.19931030273438" transform="matrix(1 0 0 1 9.11505e-7 -55)" fill-opacity="1" stroke-opacity="1"/><path fill="rgb(255,255,255)" stroke="rgb(255,255,0)" stroke-width="1.9999999928363084" stroke-linecap="butt" stroke-linejoin="miter" opacity="1" d="M 21.615755081176758 105.19931030273438 L -0.08325595408678058 105.39838409423828" transform="matrix(1 0 0 1 9.11505e-7 -55)" fill-opacity="1" stroke-opacity="1"/><path fill="rgb(255,255,255)" stroke="rgb(255,255,0)" stroke-width="1.9999999928363084" stroke-linecap="butt" stroke-linejoin="miter" opacity="1" d="M -0.08325595408678058 105.39838409423828 L -0.08325595408678058 99.02803039550781" transform="matrix(1 0 0 1 9.11505e-7 -55)" fill-opacity="1" stroke-opacity="1"/><path fill="rgb(255,255,255)" stroke="rgb(255,255,0)" stroke-width="1.9999999928363084" stroke-linecap="butt" stroke-linejoin="miter" opacity="1" d="M -0.08325595408678058 99.02803039550781 L 21.516218185424805 99.02803039550781" transform="matrix(1 0 0 1 9.11505e-7 -55)" fill-opacity="1" stroke-opacity="1"/><path fill="rgb(255,255,255)" stroke="rgb(255,255,0)" stroke-width="1.9999999928363084" stroke-linecap="butt" stroke-linejoin="miter" opacity="1" d="M 21.527006149291992 98.91693115234375 L 21.527006149291992 93.05732727050781" transform="matrix(1 0 0 1 9.11505e-7 -55)" fill-opacity="1" stroke-opacity="1"/><path fill="rgb(255,255,255)" stroke="rgb(255,255,0)" stroke-width="1.9999999928363084" stroke-linecap="butt" stroke-linejoin="miter" opacity="1" d="M 21.527006149291992 93.05732727050781 L -0.13991311192512518 93.05732727050781" transform="matrix(1 0 0 1 9.11505e-7 -55)" fill-opacity="1" stroke-opacity="1"/><path fill="rgb(255,255,255)" stroke="rgb(255,255,0)" stroke-width="1.9999999928363084" stroke-linecap="butt" stroke-linejoin="miter" opacity="1" d="M -0.13991311192512518 93.05732727050781 L -0.13991311192512518 87.33399200439453" transform="matrix(1 0 0 1 9.11505e-7 -55)" fill-opacity="1" stroke-opacity="1"/><path fill="rgb(255,255,255)" stroke="rgb(255,255,0)" stroke-width="1.9999999928363084" stroke-linecap="butt" stroke-linejoin="miter" opacity="1" d="M -0.13991311192512518 87.33399200439453 L 21.799545288085938 87.33399200439453" transform="matrix(1 0 0 1 9.11505e-7 -55)" fill-opacity="1" stroke-opacity="1"/><path fill="rgb(255,255,255)" stroke="rgb(255,255,0)" stroke-width="2.63" stroke-linecap="butt" stroke-linejoin="miter" opacity="1" d="M 135.6673583984375 111.23198699951172 L 135.65509033203125 104.14488220214844" transform="matrix(0.999995 0.00319019 -0.00319019 0.999995 -113.511 -79.3302)" fill-opacity="1" stroke-opacity="1"/><path fill="rgb(255,255,255)" stroke="rgb(255,255,0)" stroke-width="1.9999999928363084" stroke-linecap="butt" stroke-linejoin="miter" opacity="1" d="M 21.747922897338867 80.2559585571289 L 0.22989457845687866 80.19114685058594" transform="matrix(1 0 0 1 9.11505e-7 -55)" fill-opacity="1" stroke-opacity="1"/><path fill="rgb(255,255,255)" stroke="rgb(255,255,0)" stroke-width="0.9999999964181542" stroke-linecap="butt" stroke-linejoin="miter" opacity="1" d="M 0.22989457845687866 80.19114685058594 L -0.15898545086383825 80.2559585571289" transform="matrix(1 0 0 1 9.11505e-7 -55)" fill-opacity="1" stroke-opacity="1"/><path fill="rgb(255,255,255)" stroke="rgb(255,255,0)" stroke-width="1.9999999928364256" stroke-linecap="butt" stroke-linejoin="miter" opacity="1" d="M 0.05043515935540199 104.48130798339844 L 0.0733066722750664 79.85668182373047" transform="matrix(0.999998 0.00202652 -0.00202652 0.999998 0.373172 -79.2901)" fill-opacity="1" stroke-opacity="1"/><path fill="rgb(255,255,255)" stroke="rgb(255,255,0)" stroke-width="1.9999999928363084" stroke-linecap="butt" stroke-linejoin="miter" opacity="1" d="M 25.818845748901367 84.15579223632812 L 25.850008010864258 80.00970458984375" transform="matrix(1 0 0 1 9.11505e-7 -55)" fill-opacity="1" stroke-opacity="1"/></g></g></svg>